<?xml version="1.0" standalone="no"?>
<!DOCTYPE svg PUBLIC "-//W3C//DTD SVG 20010904//EN"
 "http://www.w3.org/TR/2001/REC-SVG-20010904/DTD/svg10.dtd">
<svg version="1.0" xmlns="http://www.w3.org/2000/svg"
 width="512.000000pt" height="512.000000pt" viewBox="0 0 512.000000 512.000000"
 preserveAspectRatio="xMidYMid meet">
<metadata>
Created by potrace 1.14, written by Peter Selinger 2001-2017
</metadata>
<g transform="translate(0.000000,512.000000) scale(0.100000,-0.100000)"
fill="#000000" stroke="none">
<path d="M1209 4566 c-2 -2 -23 -6 -46 -10 -68 -9 -187 -60 -255 -109 -118
-84 -198 -194 -244 -333 -24 -75 -28 -103 -28 -198 1 -155 34 -253 133 -391
20 -27 36 -56 36 -64 0 -8 11 -18 26 -21 14 -4 48 -24 76 -44 192 -138 456
-159 668 -55 l59 30 253 -254 254 -254 -41 -69 c-66 -113 -92 -208 -95 -348
l-2 -118 -129 -67 -130 -67 -61 56 c-308 283 -818 128 -922 -281 -17 -69 -21
-184 -7 -244 7 -34 38 -119 53 -148 l15 -29 -69 37 c-200 110 -353 256 -432
412 -108 214 -119 493 -30 768 48 147 103 251 217 409 48 67 65 99 66 127 5
77 -2 74 -130 -62 -182 -195 -330 -459 -370 -663 -22 -114 -27 -155 -27 -241
0 -108 14 -208 43 -320 116 -438 492 -735 1115 -880 137 -31 233 -47 365 -60
36 -3 85 -8 110 -11 47 -6 509 -5 570 0 19 2 82 7 139 11 57 3 111 8 120 10 9
1 47 6 85 9 38 4 72 9 75 10 3 2 33 7 66 10 33 4 76 11 95 16 19 5 52 11 73
14 35 6 37 4 38 -22 5 -171 117 -354 282 -460 93 -59 168 -81 298 -89 418 -25
736 388 604 783 -15 44 -36 94 -47 112 -23 38 -23 37 40 72 l46 25 1 163 c0
90 -2 168 -5 172 -3 5 -19 2 -35 -6 -17 -7 -102 -47 -189 -87 l-159 -74 -61
19 c-35 11 -97 21 -146 22 -76 2 -106 -1 -187 -19 -18 -4 -30 9 -82 95 -34 56
-61 103 -61 106 0 2 18 28 41 56 95 120 143 265 142 428 0 168 -50 310 -153
438 l-49 61 27 35 c15 19 52 70 82 113 30 43 63 87 72 97 10 11 18 23 18 27 0
3 14 24 31 45 17 22 34 44 38 51 5 10 19 9 61 -2 68 -19 207 -17 275 3 203 59
345 220 380 432 3 19 7 36 9 37 1 1 37 -17 80 -42 239 -136 402 -329 487 -577
29 -84 32 -106 35 -233 3 -156 -11 -254 -49 -355 -76 -203 -203 -373 -392
-525 l-95 -76 -1 -72 c-2 -223 -1 -257 10 -257 14 0 168 116 246 185 152 135
287 279 343 365 57 87 127 245 167 375 35 114 37 129 41 285 4 177 -4 231 -50
354 -70 186 -200 397 -300 489 -133 121 -322 235 -511 307 -52 20 -65 30 -90
73 -127 211 -381 303 -624 226 -45 -14 -114 -53 -165 -93 l-40 -31 -180 -1
c-249 -2 -325 -8 -626 -50 -124 -17 -446 -86 -550 -119 -14 -4 -22 -4 -18 0
11 12 -32 146 -70 220 -56 107 -174 221 -283 273 -46 22 -106 45 -134 52 -46
12 -227 24 -236 16z m1977 -589 c-46 -161 -24 -330 60 -457 16 -24 23 -44 18
-52 -9 -15 -254 -360 -263 -370 -4 -4 -36 2 -71 13 -170 53 -366 39 -524 -36
l-50 -24 -240 243 c-133 134 -249 252 -258 263 -17 19 -17 22 11 74 16 30 37
86 47 124 9 39 18 75 20 81 5 20 320 89 539 118 173 24 184 25 300 32 61 4
111 8 112 9 2 1 71 2 154 3 151 1 151 1 145 -21z m-1040 -1964 c168 -227 484
-331 763 -253 40 11 74 19 75 18 1 -2 28 -45 59 -97 l57 -93 -32 -42 c-17 -22
-33 -43 -35 -45 -2 -3 -128 -32 -203 -46 -59 -11 -280 -44 -330 -50 -30 -4
-66 -8 -80 -10 -86 -12 -241 -18 -492 -20 -159 0 -288 0 -288 1 0 1 30 32 68
70 110 113 164 248 161 399 l-2 80 119 62 c65 34 122 62 125 63 4 0 19 -17 35
-37z"/>
</g>
</svg>
